<svg width="32" height="32" xmlns="http://www.w3.org/2000/svg">
 <title>Cobol_SVG</title>

 <g>
  <title>Layer 1</title>
  <path id="svg_1" fill="#005ca5" d="m20.59498,2.90964a4.449,4.449 0 0 0 1.765,-2.522a4.636,4.636 0 0 1 -0.018,2.157c-0.223,0.582 -0.567,1.107 -0.834,1.669a21.772,21.772 0 0 1 4.559,-2.938c-0.482,1.488 -1.821,2.388 -2.805,3.53c0.19,0.409 0.28,0.989 0.8,1.109a5.036,5.036 0 0 0 2.5,0.155c0.912,-0.313 1.345,-1.258 1.8,-2.035l0,1.469a15.738,15.738 0 0 1 -0.582,1.748c0.2,0.547 0.409,1.092 0.582,1.647l0,0.952c-0.214,0.368 -0.442,0.726 -0.663,1.089a5.293,5.293 0 0 0 -1.068,-1.162a4.03,4.03 0 0 0 -1.851,-0.125a3.212,3.212 0 0 0 2.413,1.47c-0.359,0.37 -0.663,0.912 -1.23,0.969c-1.641,0.247 -3.207,-0.505 -4.839,-0.5c-0.282,0.02 -0.707,0.024 -0.785,0.372c0,0.735 0.217,1.453 0.19,2.188c-0.059,1.258 -0.512,2.466 -0.529,3.726a13.785,13.785 0 0 0 0.838,3.448c-0.523,-0.077 -1.044,-0.166 -1.562,-0.26c-0.1,0.208 -0.184,0.42 -0.26,0.634a4.514,4.514 0 0 0 1.139,1.195c-0.061,0.127 -0.182,0.381 -0.241,0.508l-0.573,0.138c-0.131,0.247 -0.263,0.492 -0.4,0.739a4.421,4.421 0 0 0 -2.2,0.061c-0.466,-0.186 -0.928,-0.376 -1.389,-0.567a5.939,5.939 0 0 0 0.407,-2.315c-0.282,-0.982 -1.6,-0.984 -2,-1.877a6.233,6.233 0 0 1 -1.022,-2.851c-0.823,-0.433 -1.455,-1.221 -2.4,-1.4c-0.048,0.409 -0.083,0.82 -0.153,1.227a6.015,6.015 0 0 1 -1.348,2.406c0.039,0.422 0.079,0.842 0.12,1.265c0.346,0.324 0.691,0.648 1.033,0.974a9.752,9.752 0 0 1 -1.426,0.713a11.114,11.114 0 0 1 -1.687,0.077c-0.258,-0.254 -0.518,-0.508 -0.777,-0.764a4.871,4.871 0 0 0 0.114,-2.608c0.171,-0.4 0.326,-0.812 0.475,-1.221a5.565,5.565 0 0 1 -3.01,0.206a5.12,5.12 0 0 1 -3.29,-4.33a3.859,3.859 0 0 1 1.407,-3.268a6.41,6.41 0 0 0 -0.24,2.615a3.038,3.038 0 0 0 2.5,2.466a3.462,3.462 0 0 0 1.96,-0.643a7.48,7.48 0 0 1 0.363,-4.133a5.524,5.524 0 0 1 3.586,-2.66a4.235,4.235 0 0 0 2.011,-1.566a10.67,10.67 0 0 1 1.529,-1.33c-0.228,-0.219 -0.453,-0.44 -0.68,-0.659a2.154,2.154 0 0 0 1.431,-1.711c1.284,-0.3 2.551,-0.661 3.82,-1.011a3.793,3.793 0 0 0 1.415,0.606c0.317,0.346 0.494,1.157 1.1,0.928m-3.777,13.362c0.042,0.768 -0.048,1.665 0.674,2.155c0,-0.755 -0.046,-1.507 -0.1,-2.26l-0.574,0.105z"/>
  <text font-weight="bold" font-style="normal" transform="matrix(0.284687 0 0 0.286257 21.1638 24.1167)" stroke="null" xml:space="preserve" text-anchor="start" font-family="'Brygada 1918'" font-size="24" stroke-width="0" id="svg_2" y="19.37578" x="-51.86262" fill="#005ca5">COBOL</text>
 </g>
</svg>